# xmcd
#
# Track frame offsets:
#	150
#	15235
#	27797
#
# Disc length: 611 seconds
#
# Revision: 2
# Processed by: cddbd v1.5.2PL0 Copyright (c) Steve Scherf et al.
# Submitted via: EasyCDDAExtractor 11.1.0.1
#
DISCID=11026103
DTITLE=Faith Hill - promo
DYEAR=1900
DGENRE=country
TTITLE0=It matters to me
TTITLE1=Wild one
TTITLE2=Piece of my heart
EXTD=
EXTT0=
EXTT1=
EXTT2=
PLAYORDER=
